<?xml version="1.0" encoding="UTF-8"?>
<svg xmlns="http://www.w3.org/2000/svg" xmlns:xlink="http://www.w3.org/1999/xlink" width="100pt" height="100pt" viewBox="0 0 100 100" version="1.1">
<g id="surface454">
<path style=" stroke:none;fill-rule:nonzero;fill:rgb(100%,93.333333%,63.921569%);fill-opacity:1;" d="M 61.667969 95 C 43.285156 95 28.332031 80.046875 28.332031 61.667969 C 28.332031 43.285156 43.285156 28.332031 61.667969 28.332031 C 62.792969 28.332031 63.933594 28.398438 65.082031 28.519531 C 56.882812 33.191406 51.667969 41.933594 51.667969 51.667969 C 51.667969 66.371094 63.628906 78.332031 78.332031 78.332031 C 83.417969 78.332031 88.308594 76.902344 92.523438 74.238281 C 87.503906 86.683594 75.464844 95 61.667969 95 Z M 61.667969 95 "/>
<path style=" stroke:none;fill-rule:nonzero;fill:rgb(96.078431%,76.078431%,46.27451%);fill-opacity:1;" d="M 60.003906 30.042969 C 53.78125 35.304688 50 43.125 50 51.667969 C 50 67.289062 62.710938 80 78.332031 80 C 81.964844 80 85.511719 79.3125 88.804688 78 C 83.21875 87.351562 73.078125 93.332031 61.667969 93.332031 C 44.207031 93.332031 30 79.125 30 61.667969 C 30 44.761719 43.3125 30.910156 60.003906 30.042969 M 61.667969 26.667969 C 42.335938 26.667969 26.667969 42.335938 26.667969 61.667969 C 26.667969 80.996094 42.335938 96.667969 61.667969 96.667969 C 78.261719 96.667969 92.128906 85.101562 95.730469 69.601562 C 91.226562 73.964844 85.101562 76.667969 78.332031 76.667969 C 64.527344 76.667969 53.332031 65.472656 53.332031 51.667969 C 53.332031 40.535156 60.609375 31.117188 70.664062 27.875 C 67.785156 27.113281 64.785156 26.667969 61.667969 26.667969 Z M 61.667969 26.667969 "/>
<path style=" stroke:none;fill-rule:nonzero;fill:rgb(100%,93.333333%,63.921569%);fill-opacity:1;" d="M 31.320312 18.679688 L 25.269531 16.667969 L 31.320312 14.652344 L 33.332031 8.601562 L 35.347656 14.652344 L 41.398438 16.667969 L 35.347656 18.679688 L 33.332031 24.730469 Z M 31.320312 18.679688 "/>
<path style=" stroke:none;fill-rule:nonzero;fill:rgb(96.078431%,76.078431%,46.27451%);fill-opacity:1;" d="M 33.332031 13.875 L 33.503906 14.386719 L 34.03125 15.964844 L 35.609375 16.492188 L 36.125 16.667969 L 35.613281 16.835938 L 34.035156 17.363281 L 33.507812 18.941406 L 33.332031 19.460938 L 33.164062 18.945312 L 32.636719 17.363281 L 31.054688 16.835938 L 30.539062 16.667969 L 31.054688 16.496094 L 32.632812 15.96875 L 33.160156 14.390625 L 33.332031 13.875 M 33.332031 3.332031 L 30 13.332031 L 20 16.667969 L 30 20 L 33.332031 30 L 36.667969 20 L 46.667969 16.667969 L 36.667969 13.332031 Z M 33.332031 3.332031 "/>
<path style=" stroke:none;fill-rule:nonzero;fill:rgb(100%,93.333333%,63.921569%);fill-opacity:1;" d="M 15.488281 37.847656 L 11.9375 36.667969 L 15.488281 35.488281 L 16.667969 31.9375 L 17.847656 35.488281 L 21.398438 36.667969 L 17.847656 37.847656 L 16.667969 41.398438 Z M 15.488281 37.847656 "/>
<path style=" stroke:none;fill-rule:nonzero;fill:rgb(96.078431%,76.078431%,46.27451%);fill-opacity:1;" d="M 16.667969 26.667969 L 14.167969 34.167969 L 6.667969 36.667969 L 14.167969 39.167969 L 16.667969 46.667969 L 19.167969 39.167969 L 26.667969 36.667969 L 19.167969 34.167969 Z M 16.667969 26.667969 "/>
<path style=" stroke:none;fill-rule:nonzero;fill:rgb(100%,97.647059%,87.058824%);fill-opacity:1;" d="M 78.332031 80 C 62.710938 80 50 67.289062 50 51.667969 C 50 43.125 53.78125 35.304688 60.003906 30.042969 C 59.785156 30.054688 40 35.832031 40 57.527344 C 40 73.621094 53.046875 86.667969 69.140625 86.667969 C 81.925781 86.667969 88.300781 78.84375 88.804688 78 C 85.511719 79.3125 81.964844 80 78.332031 80 Z M 78.332031 80 "/>
</g>
</svg>
