<?xml version="1.0" encoding="UTF-8"?>
<svg xmlns="http://www.w3.org/2000/svg" xmlns:xlink="http://www.w3.org/1999/xlink" width="100pt" height="100pt" viewBox="0 0 100 100" version="1.1">
<g id="surface479">
<path style=" stroke:none;fill-rule:nonzero;fill:rgb(100%,93.333333%,63.921569%);fill-opacity:1;" d="M 23.332031 48.332031 C 11.386719 48.332031 1.667969 38.613281 1.667969 26.667969 C 1.667969 14.859375 11.15625 5.230469 22.910156 5.003906 C 18.070312 8.359375 15 13.929688 15 20 C 15 30.109375 23.222656 38.332031 33.332031 38.332031 L 33.867188 38.285156 C 34.085938 38.3125 34.261719 38.332031 34.441406 38.332031 C 37.351562 38.332031 40.167969 37.652344 42.703125 36.367188 C 39.113281 43.601562 31.722656 48.332031 23.332031 48.332031 Z M 23.332031 48.332031 "/>
<path style=" stroke:none;fill-rule:nonzero;fill:rgb(96.078431%,76.078431%,46.27451%);fill-opacity:1;" d="M 17.851562 7.429688 C 15.007812 10.90625 13.332031 15.316406 13.332031 20 C 13.332031 31.027344 22.308594 40 33.332031 40 C 33.535156 40 33.726562 39.988281 33.875 39.964844 C 34.058594 39.988281 34.25 40 34.441406 40 C 35.871094 40 37.273438 39.851562 38.640625 39.558594 C 34.945312 43.964844 29.425781 46.667969 23.332031 46.667969 C 12.308594 46.667969 3.332031 37.691406 3.332031 26.667969 C 3.332031 17.535156 9.480469 9.820312 17.851562 7.429688 M 23.332031 3.332031 C 10.445312 3.332031 0 13.78125 0 26.667969 C 0 39.554688 10.445312 50 23.332031 50 C 34.398438 50 43.644531 42.289062 46.042969 31.957031 C 43.039062 34.867188 38.957031 36.667969 34.441406 36.667969 C 34.253906 36.667969 34.078125 36.617188 33.886719 36.609375 C 33.699219 36.617188 33.523438 36.667969 33.332031 36.667969 C 24.128906 36.667969 16.667969 29.203125 16.667969 20 C 16.667969 12.375 21.816406 6.015625 28.808594 4.035156 C 27.046875 3.605469 25.226562 3.332031 23.332031 3.332031 Z M 23.332031 3.332031 "/>
<path style=" stroke:none;fill-rule:nonzero;fill:rgb(100%,93.333333%,63.921569%);fill-opacity:1;" d="M 80.488281 19.375 L 76.9375 18.191406 L 80.488281 17.011719 L 81.667969 13.464844 L 82.847656 17.011719 L 86.398438 18.191406 L 82.847656 19.375 L 81.667969 22.921875 Z M 80.488281 19.375 "/>
<path style=" stroke:none;fill-rule:nonzero;fill:rgb(96.078431%,76.078431%,46.27451%);fill-opacity:1;" d="M 81.667969 8.191406 L 79.167969 15.691406 L 71.667969 18.191406 L 79.167969 20.691406 L 81.667969 28.191406 L 84.167969 20.691406 L 91.667969 18.191406 L 84.167969 15.691406 Z M 81.667969 8.191406 "/>
<path style=" stroke:none;fill-rule:nonzero;fill:rgb(100%,93.333333%,63.921569%);fill-opacity:1;" d="M 61.179688 11.875 L 60.132812 11.527344 L 61.179688 11.179688 L 61.527344 10.132812 L 61.875 11.179688 L 62.921875 11.527344 L 61.875 11.875 L 61.527344 12.921875 Z M 61.179688 11.875 "/>
<path style=" stroke:none;fill-rule:nonzero;fill:rgb(96.078431%,76.078431%,46.27451%);fill-opacity:1;" d="M 61.527344 4.859375 L 59.859375 9.859375 L 54.859375 11.527344 L 59.859375 13.191406 L 61.527344 18.191406 L 63.191406 13.191406 L 68.191406 11.527344 L 63.191406 9.859375 Z M 61.527344 4.859375 "/>
<path style=" stroke:none;fill-rule:nonzero;fill:rgb(86.27451%,83.529412%,94.901961%);fill-opacity:1;" d="M 16.667969 88.332031 C 8.398438 88.332031 1.667969 81.601562 1.667969 73.332031 C 1.667969 67.332031 5.238281 61.921875 10.761719 59.550781 L 11.664062 59.160156 L 11.761719 58.179688 C 12.6875 48.765625 20.527344 41.667969 30 41.667969 L 30.558594 41.695312 L 31.910156 41.730469 L 32.21875 40.410156 C 34.351562 31.335938 42.351562 25 51.667969 25 C 58.503906 25 64.796875 28.453125 68.503906 34.238281 L 68.992188 35.003906 C 68.992188 35.003906 69.910156 35.003906 69.914062 35.003906 C 79.941406 35.003906 87.972656 42.789062 88.300781 52.730469 L 88.328125 53.65625 L 89.132812 54.121094 C 94.808594 57.394531 98.332031 63.476562 98.332031 70 C 98.332031 79.457031 90.953125 87.476562 81.53125 88.253906 L 80.574219 88.332031 Z M 16.667969 88.332031 "/>
<path style=" stroke:none;fill-rule:nonzero;fill:rgb(65.098039%,57.647059%,73.72549%);fill-opacity:1;" d="M 51.667969 26.667969 C 57.933594 26.667969 63.703125 29.832031 67.101562 35.136719 L 68.089844 36.683594 L 69.925781 36.671875 L 70.089844 36.667969 L 70.101562 36.667969 C 79.089844 36.71875 86.34375 43.78125 86.636719 52.785156 L 86.695312 54.640625 L 88.304688 55.566406 C 93.460938 58.539062 96.667969 64.074219 96.667969 70 C 96.667969 78.597656 89.957031 85.886719 81.394531 86.59375 L 80.730469 86.667969 L 16.667969 86.667969 C 9.3125 86.667969 3.332031 80.6875 3.332031 73.332031 C 3.332031 68 6.507812 63.191406 11.417969 61.082031 L 13.226562 60.308594 L 13.421875 58.347656 C 14.261719 49.792969 21.382812 43.339844 30.09375 43.34375 C 30.097656 43.34375 30.101562 43.34375 30.109375 43.34375 L 30.5 43.363281 L 33.21875 43.441406 L 33.84375 40.792969 C 35.796875 32.476562 43.125 26.667969 51.667969 26.667969 M 51.667969 23.332031 C 41.414062 23.332031 32.84375 30.464844 30.597656 40.03125 C 30.398438 40.023438 30.199219 40 30 40 C 19.625 40 11.09375 47.902344 10.101562 58.019531 C 4.164062 60.570312 0 66.464844 0 73.332031 C 0 82.535156 7.464844 90 16.667969 90 L 81.667969 90 L 81.667969 89.917969 C 91.929688 89.066406 100 80.484375 100 70 C 100 62.585938 95.957031 56.132812 89.964844 52.675781 C 89.617188 41.9375 80.824219 33.332031 70 33.332031 C 69.96875 33.332031 69.941406 33.335938 69.90625 33.335938 C 66.058594 27.328125 59.332031 23.332031 51.667969 23.332031 Z M 51.667969 23.332031 "/>
<path style=" stroke:none;fill-rule:nonzero;fill:rgb(96.862745%,96.078431%,100%);fill-opacity:1;" d="M 12.730469 64.144531 L 14.539062 63.367188 L 16.351562 62.589844 L 16.542969 60.628906 L 16.738281 58.671875 C 17.40625 51.855469 23.105469 46.714844 30.027344 46.671875 L 30.398438 46.691406 L 33.121094 46.773438 L 35.839844 46.851562 L 36.464844 44.203125 L 37.085938 41.554688 C 38.554688 35.304688 43.75 30.832031 50 30.140625 L 50 26.808594 C 42.191406 27.511719 35.667969 33.027344 33.839844 40.792969 L 33.214844 43.441406 L 30.496094 43.363281 L 30.105469 43.34375 C 30.101562 43.34375 30.097656 43.34375 30.089844 43.34375 C 21.375 43.34375 14.257812 49.792969 13.417969 58.347656 L 13.222656 60.308594 L 11.414062 61.082031 C 6.507812 63.191406 3.332031 68 3.332031 73.332031 L 6.667969 73.332031 C 6.667969 69.332031 9.046875 65.726562 12.730469 64.144531 Z M 12.730469 64.144531 "/>
</g>
</svg>
